<svg xmlns="http://www.w3.org/2000/svg" viewBox="0 0 14.69 10.49"><defs><style>.cls-1{fill:#9c635f;}.cls-1,.cls-2{stroke:#9c635f;stroke-miterlimit:10;}.cls-2{fill:#fff;}</style></defs><g id="Layer_2" data-name="Layer 2"><g id="Illustration"><polygon class="cls-1" points="9.76 4.21 7.34 1.51 4.93 4.21 0.95 9.99 7.34 9.99 13.74 9.99 9.76 4.21"/><path class="cls-2" d="M7.86.77A.55.55,0,0,0,7.39.5h0a.56.56,0,0,0-.47.27L2.46,7.94,5.1,6a.32.32,0,0,1,.43,0L7.16,7.7a.3.3,0,0,0,.23.1.33.33,0,0,0,.24-.1L9.26,6.1a.32.32,0,0,1,.41,0l2.65,1.87Z"/></g></g></svg>